<svg height="511pt" viewBox="-16 1 511 511.9995" width="511pt" xmlns="http://www.w3.org/2000/svg"><path d="m240.351562 512c-78.351562 0-141.332031-39.28125-182.136718-113.601562-38.296875-69.75-57.714844-172.238282-57.714844-304.617188 0-27.914062 26.089844-48.488281 53.238281-41.980469 16.90625 4.054688 33.738281 6.109375 50.03125 6.109375 30.425781 0 73.160157-7.464844 103.953125-43.007812 17.214844-19.871094 48.042969-19.871094 65.257813 0 30.792969 35.546875 73.523437 43.007812 103.949219 43.007812 16.300781 0 33.132812-2.054687 50.035156-6.109375 27.144531-6.507812 53.234375 14.066407 53.234375 41.980469 0 132.378906-19.417969 234.863281-57.714844 304.617188-40.800781 74.320312-103.785156 113.601562-182.132813 113.601562zm0 0" fill="#7397da"/><path d="m400.320312 432.511719c-234.6875 62.851562-336.539062-247.953125-288.539062-374.78125-2.746094.117187-5.425781.179687-8.011719.179687-16.292969 0-33.125-2.054687-50.03125-6.109375-27.144531-6.507812-53.238281 14.066407-53.238281 41.980469 0 132.378906 19.417969 234.863281 57.714844 304.617188 40.804687 74.320312 103.785156 113.601562 182.136718 113.601562 65.328126 0 119.957032-27.332031 159.96875-79.488281zm0 0" fill="#6988c4"/><path d="m240.351562 468.828125c120.042969 0 193.636719-113.4375 196.585938-359.519531.09375-7.882813-7.070312-13.792969-14.824219-12.386719-58.371093 10.582031-123.429687 2.464844-170.386719-41.871094-6.355468-6-16.398437-6-22.75 0-46.957031 44.335938-112.019531 52.453125-170.386718 41.871094-7.757813-1.40625-14.921875 4.503906-14.828125 12.386719 2.949219 246.082031 76.542969 359.519531 196.589843 359.519531zm0 0" fill="#f8e47c"/><path d="m77.753906 125.449219c53.394532 4.542969 111.761719-2.640625 149.898438-39 4.386718-4.183594 11.28125-4 15.597656.257812 42.527344 41.917969 104.523438 45.675781 157.8125 39.832031 6.390625-.703124 11.972656 4.308594 11.914062 10.734376-1.226562 130.738281-22.238281 224.359374-59.445312 283.722656 51.738281-54.601563 81.550781-156.886719 83.40625-311.671875.09375-7.84375-6.976562-13.828125-14.695312-12.425781-58.398438 10.617187-123.519532 2.523437-170.511719-41.84375-6.21875-5.871094-16.539063-5.871094-22.757813 0-46.984375 44.363281-112.097656 52.460937-170.492187 41.847656-7.71875-1.402344-14.8125 4.574218-14.714844 12.417968.117187 10.125.371094 20.003907.730469 29.679688 7.714844-12.621094 20.75-14.613281 33.257812-13.550781zm0 0" fill="#edd35f"/><path d="m168.625 216.8125c0-18.445312-18.777344-33.398438-41.941406-33.398438-23.164063 0-41.941406 14.953126-41.941406 33.398438 0 18.449219 18.777343 33.402344 41.941406 33.402344 23.164062 0 41.941406-14.953125 41.941406-33.402344zm0 0" fill="#eb8d9a"/><path d="m395.957031 216.8125c0-18.445312-18.777343-33.398438-41.9375-33.398438-23.164062 0-41.941406 14.953126-41.941406 33.398438 0 18.449219 18.777344 33.402344 41.941406 33.402344 23.160157 0 41.9375-14.953125 41.9375-33.402344zm0 0" fill="#eb8d9a"/><g fill="#495059"><path d="m133.695312 184.875c-4.140624 0-7.5-3.355469-7.5-7.5v-18c0-4.144531 3.359376-7.5 7.5-7.5 4.144532 0 7.5 3.355469 7.5 7.5v18c0 4.144531-3.359374 7.5-7.5 7.5zm0 0"/><path d="m240.351562 221.539062c-16.78125 0-30.386718-13.605468-30.386718-30.386718v-22.09375c0-4.582032 3.714844-8.292969 8.292968-8.292969h44.183594c4.582032 0 8.296875 3.710937 8.296875 8.292969v22.09375c0 16.78125-13.605469 30.386718-30.386719 30.386718zm0 0"/><path d="m347.003906 184.875c-4.140625 0-7.5-3.355469-7.5-7.5v-18c0-4.144531 3.359375-7.5 7.5-7.5 4.144532 0 7.5 3.355469 7.5 7.5v18c0 4.144531-3.355468 7.5-7.5 7.5zm0 0"/></g><path d="m240.351562 468.828125c74.789063 0 131.542969-44.039063 164.425782-136.746094-80.527344 0-106.847656 36.480469-164.425782 36.480469-57.578124 0-83.902343-36.480469-164.425781-36.480469 32.878907 92.707031 89.636719 136.746094 164.425781 136.746094zm0 0" fill="#ddaf89"/><path d="m353.523438 421.011719c20.730468-21.882813 37.949218-51.421875 51.253906-88.929688-5.015625 0-9.816406.140625-14.429688.40625-9.496094 35.183594-21.847656 64.628907-36.824218 88.523438zm0 0" fill="#c9a07d"/><path d="m279.105469 334.746094c-4.144531 0-7.5-3.359375-7.5-7.5v-18.367188c0-17.230468-14.023438-31.253906-31.253907-31.253906-17.234374 0-31.253906 14.023438-31.253906 31.253906v18.367188c0 4.140625-3.359375 7.5-7.5 7.5-4.144531 0-7.5-3.359375-7.5-7.5v-18.367188c0-25.503906 20.75-46.253906 46.253906-46.253906 25.503907 0 46.253907 20.75 46.253907 46.253906v18.367188c0 4.140625-3.359375 7.5-7.5 7.5zm0 0" fill="#7397da"/><path d="m289.554688 327.246094h-98.40625c-9.960938 0-18.035157 8.074218-18.035157 18.035156v60.484375c0 9.960937 8.074219 18.035156 18.035157 18.035156h98.40625c9.957031 0 18.03125-8.074219 18.03125-18.035156v-60.484375c0-9.960938-8.070313-18.035156-18.03125-18.035156zm0 0" fill="#495059"/><path d="m240.351562 400.714844c-4.144531 0-7.5-3.355469-7.5-7.5v-13.917969c0-4.144531 3.355469-7.5 7.5-7.5 4.140626 0 7.5 3.355469 7.5 7.5v13.917969c0 4.140625-3.359374 7.5-7.5 7.5zm0 0" fill="#fff"/><path d="m257.382812 368.679688c0 9.410156-7.625 17.035156-17.03125 17.035156-9.410156 0-17.035156-7.625-17.035156-17.035156 0-9.40625 7.625-17.03125 17.035156-17.03125 9.40625 0 17.03125 7.625 17.03125 17.03125zm0 0" fill="#fff"/></svg>